<svg width="255" height="215" viewBox="0 0 255 215" fill="none" xmlns="http://www.w3.org/2000/svg">
<path fill-rule="evenodd" clip-rule="evenodd" d="M15.3433 43.5797H228.342C232.654 43.5797 236.425 45.1412 239.382 48.0149C242.083 50.6229 243.96 54.2774 243.96 58.4552V88.9867V90.0332H242.888H177.186C171.803 90.0332 166.686 92.1179 163.18 95.7641C159.408 99.1611 157.257 104.111 157.257 109.336V149.252C157.257 154.726 159.417 159.427 163.18 162.816C166.686 166.462 171.803 168.555 177.186 168.555H242.888H243.96V169.601V200.133C243.96 204.302 242.074 207.957 239.382 210.831C236.425 213.43 232.654 215 228.342 215H15.3433C11.2975 215 7.27736 213.439 4.57727 210.831C1.88575 207.965 0 204.302 0 200.133V58.4469C0 54.2774 1.88575 50.6146 4.57727 48.0066C7.26879 45.1412 11.2975 43.5797 15.3433 43.5797ZM177.186 100.723H246.394C251.228 100.723 255 104.635 255 109.336V149.252C255 153.945 251.237 157.857 246.394 157.857H177.186C172.343 157.857 168.554 153.945 168.554 149.252V109.336C168.554 104.626 172.334 100.723 177.186 100.723ZM15.0777 34.7093C62.7364 23.2309 146.748 11.4867 194.141 0C198.444 0 201.144 1.82724 202.755 4.96677C205.455 14.8754 208.147 24.7924 210.838 34.7093C157.797 34.7093 68.128 34.7093 15.0777 34.7093ZM210.573 112.201C220.268 112.201 228.076 119.51 228.076 128.895C228.076 138.032 220.268 145.598 210.573 145.598C201.144 145.598 193.326 138.032 193.326 128.895C193.326 119.51 201.153 112.201 210.573 112.201Z" fill="#A2D6F9"/>
</svg>
